<svg xmlns="http://www.w3.org/2000/svg" width="512" height="512" viewBox="0 0 512 512" version="1.1">
	<path d="M 0 256.002 L 0 512.004 256.250 511.752 L 512.500 511.500 512.752 255.750 L 513.004 0 256.502 0 L 0 0 0 256.002 M 0.492 256.500 C 0.492 397.300, 0.608 454.751, 0.750 384.170 C 0.892 313.588, 0.892 198.388, 0.750 128.170 C 0.608 57.951, 0.492 115.700, 0.492 256.500 M 177.405 39.102 C 175.681 41.004, 175.448 43.448, 174.953 64.852 L 174.406 88.500 177.219 91.250 C 180.673 94.627, 183.054 94.718, 186.665 91.612 L 189.442 89.223 189.174 65.362 L 188.905 41.500 186.397 39.250 C 183.255 36.432, 179.875 36.376, 177.405 39.102 M 241.687 39.805 L 239 42.609 239 66.232 L 239 89.855 241.635 91.927 C 245.130 94.677, 248.546 94.545, 251.545 91.545 C 253.952 89.139, 253.998 88.782, 253.920 73.295 C 253.877 64.608, 253.530 53.755, 253.149 49.177 C 252.547 41.929, 252.138 40.608, 249.979 38.949 C 246.585 36.342, 244.832 36.523, 241.687 39.805 M 307.229 37.669 C 303.766 39.063, 303.124 43.345, 302.925 66.374 C 302.731 88.850, 302.752 89.108, 305.039 91.541 C 306.309 92.894, 307.988 94, 308.770 94 C 311.169 94, 315.965 90.682, 316.671 88.534 C 317.038 87.415, 317.273 76.415, 317.192 64.088 C 317.050 42.487, 316.965 41.591, 314.848 39.338 C 312.767 37.123, 310.060 36.530, 307.229 37.669 M 155.773 53.954 C 144.045 56.231, 130.981 67.114, 124.799 79.754 L 121.500 86.500 120.991 213.500 C 120.608 309.253, 120.776 342.310, 121.677 347.858 C 122.910 355.460, 126.793 364.777, 129.715 367.147 C 130.976 368.169, 131.194 368.184, 130.608 367.210 C 130.016 366.225, 130.482 366.083, 132.581 366.610 C 134.999 367.216, 135.237 367.071, 134.563 365.400 C 134.141 364.355, 132.605 360.575, 131.148 357 L 128.500 350.500 128.216 226.500 C 128.050 153.990, 128.319 99.268, 128.865 94.716 C 129.434 89.970, 130.819 84.847, 132.413 81.588 C 137.576 71.036, 149.710 61.653, 159.974 60.277 C 163.144 59.852, 163.900 59.304, 164.315 57.133 C 165.081 53.126, 163.352 52.482, 155.773 53.954 M 210.500 53.978 C 203.900 54.319, 199.031 54.688, 199.680 54.799 C 200.330 54.909, 201.005 55.954, 201.180 57.119 C 201.489 59.164, 201.960 59.233, 214.470 59.066 C 221.603 58.971, 227.556 58.777, 227.698 58.635 C 227.841 58.493, 228.079 57.279, 228.228 55.938 C 228.549 53.057, 228.487 53.050, 210.500 53.978 M 264 54.809 C 264 55.254, 264.563 56.361, 265.250 57.269 C 266.274 58.621, 268.801 58.972, 279.252 59.210 L 292.004 59.500 292.002 56.750 L 292 54 278 54 C 270.300 54, 264 54.364, 264 54.809 M 327.998 56.750 L 327.996 59.500 341.234 59.191 C 351.637 58.949, 354.850 58.540, 356.236 57.286 C 357.206 56.408, 358 55.310, 358 54.845 C 358 54.380, 351.250 54, 343 54 L 328 54 327.998 56.750 M 371.492 59.056 C 369.837 59.538, 366.479 61.974, 364.030 64.469 C 359.809 68.770, 359.667 69.096, 361.308 70.736 C 362.593 72.022, 364.505 72.424, 368.747 72.300 C 371.886 72.208, 374.971 72.561, 375.601 73.084 C 376.231 73.607, 377.492 73.749, 378.403 73.399 C 379.919 72.817, 379.909 72.650, 378.279 71.414 C 376.599 70.139, 376.597 70.062, 378.250 70.032 C 379.212 70.014, 380 69.308, 380 68.462 C 380 67.449, 379.233 67.022, 377.750 67.212 C 376.512 67.370, 375.426 67.100, 375.335 66.612 C 375.245 66.123, 374.570 65.319, 373.835 64.825 C 372.992 64.257, 373.975 64.128, 376.500 64.474 C 379.440 64.876, 379.970 64.772, 378.500 64.081 C 376.754 63.260, 376.894 63.132, 379.601 63.070 C 385.131 62.945, 389.263 65.133, 403.438 75.694 C 417.827 86.415, 423.581 92.036, 425.004 96.765 L 425.828 99.500 425.914 96.210 C 426.079 89.885, 422.716 85.667, 407.751 73.434 C 399.913 67.026, 391.700 60.942, 389.500 59.914 C 385.236 57.921, 376.776 57.518, 371.492 59.056 M 328.079 77.583 C 328.127 78.748, 328.364 78.985, 328.683 78.188 C 328.972 77.466, 328.936 76.603, 328.604 76.271 C 328.272 75.939, 328.036 76.529, 328.079 77.583 M 348.474 80.634 L 345.709 85.353 348.189 87.426 C 349.552 88.567, 355.983 93.325, 362.480 98 C 368.976 102.675, 377.938 109.221, 382.396 112.547 C 386.853 115.873, 394.500 121.461, 399.389 124.965 L 408.277 131.336 411.112 127.918 C 412.671 126.038, 413.958 124.217, 413.973 123.870 C 414.011 122.992, 407.383 117.657, 392.361 106.473 C 385.288 101.206, 375.900 94.087, 371.500 90.652 C 367.100 87.218, 361.700 83.196, 359.500 81.716 C 357.300 80.235, 354.541 78.324, 353.370 77.469 C 351.327 75.979, 351.126 76.109, 348.474 80.634 M 197.993 95.401 C 197.172 96.742, 194.751 99.226, 192.612 100.920 C 188.244 104.381, 188.843 105.003, 193.696 102.044 C 197.162 99.930, 200.399 95.697, 199.837 94.012 C 199.645 93.434, 198.815 94.059, 197.993 95.401 M 395.722 95.074 C 396.944 96.347, 398.196 97.137, 398.503 96.830 C 398.811 96.522, 397.811 95.481, 396.281 94.515 L 393.500 92.759 395.722 95.074 M 260.582 97.658 C 259.017 99.618, 256.202 102.128, 254.326 103.235 C 249.439 106.119, 251.035 106.645, 256.558 103.972 C 259.922 102.343, 261.625 100.749, 262.669 98.249 C 264.625 93.569, 263.988 93.388, 260.582 97.658 M 335.655 97.386 C 334.195 99.300, 333 101.326, 333 101.888 C 333 102.450, 337.387 106.087, 342.750 109.971 C 348.113 113.854, 353.850 118.084, 355.500 119.371 C 357.150 120.657, 366.580 127.685, 376.456 134.989 L 394.411 148.270 397.215 144.912 C 398.756 143.065, 399.868 141.092, 399.684 140.527 C 399.501 139.962, 396.685 137.336, 393.426 134.692 C 384.353 127.331, 341.223 95.023, 339.676 94.429 C 338.888 94.127, 337.186 95.378, 335.655 97.386 M 422.511 107.623 C 421.566 109.066, 421.287 109.941, 421.891 109.567 C 423.045 108.854, 425.374 105, 424.650 105 C 424.419 105, 423.457 106.180, 422.511 107.623 M 324.923 111.584 C 324.140 112.844, 318.775 120.024, 313 127.539 C 307.225 135.054, 298.900 146.043, 294.500 151.960 C 290.100 157.877, 281.303 169.643, 274.951 178.109 C 234.173 232.454, 227.355 241.586, 225.012 245 C 223.691 246.925, 219.323 252.427, 215.305 257.227 C 211.287 262.027, 208 266.229, 208 266.567 C 208 267.917, 212.846 271.285, 219 274.212 C 222.575 275.913, 226.508 278.210, 227.740 279.316 C 229.948 281.301, 230.009 281.302, 232.144 279.414 L 234.310 277.500 232.565 280.212 C 231.102 282.486, 231.004 283.482, 231.960 286.380 C 233.396 290.730, 236.019 292.453, 243.540 293.986 C 246.818 294.654, 250.511 296.133, 251.746 297.271 C 252.981 298.410, 254.159 299.152, 254.364 298.921 C 254.568 298.689, 257.278 294.675, 260.385 290 C 263.492 285.325, 268.614 278.069, 271.767 273.875 C 274.920 269.681, 285.508 255.506, 295.295 242.375 C 305.082 229.244, 315.363 215.575, 318.141 212 C 320.918 208.425, 329.623 196.950, 337.485 186.500 C 359.188 157.651, 366.026 148.715, 368.282 146.254 C 369.415 145.019, 370.152 143.827, 369.921 143.606 C 369.689 143.385, 366.575 141.245, 363 138.851 C 359.425 136.457, 349.715 128.827, 341.423 121.895 C 326.455 109.383, 326.336 109.309, 324.923 111.584 M 66.826 129.670 C 61.314 133.176, 60.584 138.875, 65.106 143.099 C 69.846 147.527, 76.681 146.451, 79.594 140.818 C 80.826 138.436, 80.838 137.547, 79.674 134.763 C 78.924 132.968, 77.635 130.940, 76.810 130.256 C 74.218 128.107, 69.700 127.842, 66.826 129.670 M 164.651 148.622 C 160.886 152.386, 161.133 156.333, 165.400 160.600 L 168.800 164 220.736 164 L 272.672 164 278.462 156.250 C 281.647 151.988, 284.463 147.951, 284.721 147.281 C 285.087 146.330, 272.185 146.051, 226.246 146.016 L 167.302 145.971 164.651 148.622 M 167.357 187.930 C 164.274 189.263, 162 192.951, 162 196.619 C 162 198.966, 162.871 200.558, 165.345 202.729 L 168.689 205.666 205.050 205.583 L 241.411 205.500 247.819 197.197 C 251.344 192.630, 253.926 188.593, 253.558 188.225 C 252.500 187.166, 169.777 186.883, 167.357 187.930 M 436.180 192.682 C 425.037 198.173, 424.215 213.625, 434.719 220.146 C 444.731 226.362, 458 218.613, 458 206.549 C 458 201.884, 456.026 198.108, 451.516 194.148 C 447.348 190.489, 441.722 189.951, 436.180 192.682 M 168 229.041 C 161.548 231.744, 160.087 238.933, 164.992 243.838 L 167.984 246.830 189.536 246.602 L 211.087 246.374 217.021 238.437 C 220.284 234.072, 222.964 230.162, 222.977 229.750 C 222.990 229.338, 214.518 229, 204.151 229 C 193.784 229, 181.971 228.774, 177.901 228.497 C 173.754 228.215, 169.401 228.455, 168 229.041 M 342.913 233.209 C 341.657 235.019, 338.913 238.587, 336.815 241.139 C 334.717 243.690, 333 246.053, 333 246.389 C 333 247.373, 341.170 247.080, 345.238 245.951 C 352.425 243.955, 353.290 236.004, 346.848 231.159 C 345.441 230.102, 344.856 230.407, 342.913 233.209 M 301.872 267.750 C 300.629 269.336, 300.664 269.371, 302.250 268.128 C 303.212 267.373, 304 266.585, 304 266.378 C 304 265.555, 303.179 266.084, 301.872 267.750 M 172.500 269.608 C 166.192 270.534, 164.991 271.116, 163.518 273.965 C 161.327 278.202, 161.641 281.420, 164.589 284.923 L 167.178 288 178.530 288 C 186.513 288, 190.122 287.629, 190.691 286.750 C 192.011 284.711, 194.741 270.958, 193.926 270.454 C 192.811 269.765, 175.966 269.100, 172.500 269.608 M 309.929 277.711 C 306.943 281.402, 303.912 285.227, 303.193 286.211 C 301.949 287.915, 302.931 288, 323.888 288 C 345.593 288, 345.926 287.968, 348.644 285.630 C 352.506 282.308, 352.506 276.692, 348.644 273.370 C 346.005 271.100, 345.242 271, 330.624 271 L 315.359 271 309.929 277.711 M 433.655 274.829 C 432.745 275.835, 432 277.565, 432 278.674 C 432 281.033, 434.947 284, 437.290 284 C 439.106 284, 443 280.249, 443 278.500 C 443 276.674, 439.070 273, 437.116 273 C 436.123 273, 434.565 273.823, 433.655 274.829 M 203.564 277.195 C 203.335 277.913, 202.928 279.850, 202.659 281.500 C 202.390 283.150, 201.012 289.900, 199.596 296.500 C 198.180 303.100, 197.025 309.625, 197.031 311 C 197.039 312.967, 198.882 314.886, 205.677 320 C 210.426 323.575, 215.437 327.908, 216.810 329.630 L 219.308 332.759 226.404 330.461 C 230.307 329.197, 238.450 326.739, 244.500 324.997 C 250.550 323.255, 256.625 321.484, 258 321.061 C 260.293 320.356, 259.956 320.043, 253.931 317.291 C 247.345 314.282, 246.478 313.267, 244.500 306.250 C 243.978 304.400, 243.158 304, 239.883 304 C 233.009 304, 227.878 300.123, 223.042 291.279 C 221.247 287.994, 219.178 285.936, 216 284.272 C 213.525 282.976, 209.808 280.560, 207.740 278.902 C 205.120 276.804, 203.854 276.285, 203.564 277.195 M 287.872 286.750 C 286.629 288.336, 286.664 288.371, 288.250 287.128 C 289.916 285.821, 290.445 285, 289.622 285 C 289.415 285, 288.627 285.788, 287.872 286.750 M 69.200 287.200 C 67.209 289.191, 67.826 290, 71.333 290 C 75.292 290, 76.390 289.175, 74.869 287.342 C 73.487 285.677, 70.791 285.609, 69.200 287.200 M 272.909 307.015 C 268.783 312.897, 268.644 312.991, 266.595 311.302 C 264.738 309.770, 264.752 309.848, 266.722 311.982 C 267.944 313.306, 269.112 314.189, 269.317 313.944 C 270.889 312.071, 277.974 301, 277.601 301 C 277.341 301, 275.229 303.707, 272.909 307.015 M 189 354.393 C 189 354.609, 189.675 355.045, 190.500 355.362 C 191.325 355.678, 192 355.501, 192 354.969 C 192 354.436, 191.325 354, 190.500 354 C 189.675 354, 189 354.177, 189 354.393" stroke="none" fill="black" fill-rule="evenodd"/>
</svg>